# xmcd
# 
# Track frame offsets:
#     150
#     12128
#     29652
#     52653
#     71306
#     102761
#     130583
#     153846
#     166737
#     190679
#     202219
# 
# Disc length: 3273
# 
# Revision: 3
# Processed by: cddbd v1.5.2PL0 Copyright (c) Steve Scherf et al.
# Submitted via: fre:ac v1.0.17
# 
DISCID=7f0cc70b
DTITLE=Erja Lyytinen - The Sky Is Crying
DYEAR=2014
DGENRE=Blues
TTITLE0=Person To Person
TTITLE1=Baby Please Set A Date
TTITLE2=It Hurts Me Too
TTITLE3=Erja's Contribution To Jazz
TTITLE4=The Sky Is Crying
TTITLE5=Got To Move
TTITLE6=King Of The Slide Guitar
TTITLE7=Sho Nuff
TTITLE8=Something Inside Me
TTITLE9=Hand In Hand
TTITLE10=Dust My Broom [live]
EXTD=
EXTT0=
EXTT1=
EXTT2=
EXTT3=
EXTT4=
EXTT5=
EXTT6=
EXTT7=
EXTT8=
EXTT9=
EXTT10=
PLAYORDER=
